<svg xmlns="http://www.w3.org/2000/svg" fill="none" viewBox="0 0 137 40">
  <path fill="#F70" fill-rule="evenodd" d="M8 0C3.5817 0 0 3.5817 0 8v24c0 4.4183 3.5817 8 8 8h24c4.4183 0 8-3.5817 8-8V8c0-4.4183-3.5817-8-8-8H8Zm23.1886 10.0299c.3024 0 .5745.1497.6955.4192l.0302-.0299c.1512.2694.0907.5988-.0907.8083L24.4452 20l7.3784 8.7725c.1814.2395.2117.5389.0907.8083-.1209.2396-.3931.4192-.6955.4192h-6.8643a.7476.7476 0 0 1-.5746-.2695l-2.6308-3.1137c-.2722-.2994-.2419-.7785.0907-1.0479.3024-.2695.7862-.2396 1.0584.0898l2.3889 2.8443h4.8988l-6.1689-7.3353-7.1969 8.5628a.7476.7476 0 0 1-.5746.2695H8.7812c-.3024 0-.5746-.1497-.6955-.4192-.1512-.2694-.0907-.5988.0907-.8083l6.0176-7.1258c.2722-.2994.7258-.3593 1.0584-.0898.3024.2694.3629.7185.0907 1.0479l-4.9592 5.8982h4.8988L22.4494 20l-7.1667-8.503h-4.8988l8.467 10.0599c.2722.2994.2419.7784-.0907 1.0479-.3024.2695-.7862.2395-1.0584-.0898L8.1764 11.2275c-.1814-.2395-.2117-.5389-.0907-.8083.121-.2396.3931-.4192.6955-.4192h6.8643a.7476.7476 0 0 1 .5746.2695l7.1667 8.5928 6.1688-7.3354h-4.8987l-2.4494 2.9342c-.2722.2994-.7258.3593-1.0584.0898-.3024-.2695-.3629-.7186-.0907-1.0479l2.6913-3.2036a.7479.7479 0 0 1 .5745-.2695h6.8644Z" clip-rule="evenodd"/>
  <path fill="currentColor" d="M83.9399 18.78V4h3.1726v14.78h-3.1726Z"/>
  <path fill="currentColor" fill-rule="evenodd" d="M90.0804 17.3868c.8724.9854 2.3315 1.478 4.3775 1.478 2.046 0 3.502-.4926 4.3681-1.478.8661-.9853 1.299-2.3943 1.299-4.2269 0-1.8389-.4329-3.2415-1.299-4.208-.8661-.9728-2.3221-1.4592-4.3681-1.4592-2.046 0-3.5051.4864-4.3775 1.4592-.8661.9665-1.2992 2.3691-1.2992 4.208 0 1.8326.4331 3.2416 1.2992 4.2269Zm6.1756-1.3556c-.4644.4582-1.0638.6872-1.7981.6872s-1.3368-.229-1.8075-.6872c-.4707-.4644-.706-1.4184-.706-2.8619 0-1.4434.2353-2.3911.706-2.843.4707-.4581 1.0732-.6872 1.8075-.6872.7343 0 1.3337.229 1.7981.6872.4707.4519.706 1.3996.706 2.843 0 1.4435-.2353 2.3975-.706 2.8619ZM129.592 18.893c-.678 0-1.284-.0533-1.817-.16-.528-.113-.976-.3013-1.347-.5648-.37-.2636-.652-.6182-.847-1.0638-.194-.4456-.292-1.0011-.292-1.6663 0-.6339.091-1.1642.273-1.591.189-.4268.462-.7688.819-1.0261.364-.2636.813-.4519 1.347-.5649.533-.1192 1.148-.1788 1.845-.1788h3.521v-.4237c0-.502-.091-.8974-.273-1.1861-.176-.295-.434-.5084-.772-.6402-.339-.1318-.741-.1977-1.205-.1977-.371 0-.716.0596-1.036.1789-.314.113-.584.3044-.81.5743-.226.2698-.386.6338-.48 1.092l-3.097-.8567c.132-.5774.364-1.0638.697-1.4592.339-.4016.75-.7217 1.233-.9602.483-.2385 1.02-.411 1.61-.5178.596-.113 1.217-.1694 1.864-.1694 1.186 0 2.184.1412 2.993.4236.81.2824 1.422.7406 1.836 1.3744.414.6277.621 1.4624.621 2.5042v6.9664h-2.635l-.273-1.2803c-.101.1694-.264.3357-.49.4989-.226.1632-.502.3138-.828.4519-.327.1318-.697.2385-1.111.3201-.414.0815-.863.1223-1.346.1223Zm.715-2.024c.433 0 .835-.0502 1.205-.1506.37-.1004.687-.2322.951-.3954.27-.1694.464-.3483.583-.5366v-1.9958h-2.72c-.276 0-.527.022-.753.0659-.226.0377-.421.1099-.584.2166-.157.1066-.279.2604-.367.4612-.082.2009-.123.4613-.123.7814s.044.5805.132.7814c.088.2008.214.3577.377.4707.163.1067.354.1851.574.2353.22.044.461.0659.725.0659Z" clip-rule="evenodd"/>
  <path fill="currentColor" d="M73.5698 21.1165v14.78h3.1726v-14.78h-3.1726ZM103.586 35.8966V24.7315h3.172v11.1651h-3.172ZM103.586 21.3801h3.172v2.2123h-3.172v-2.2123Z"/>
  <path fill="currentColor" fill-rule="evenodd" d="M121.577 34.4749c.841 1.0167 2.315 1.5251 4.424 1.5251 1.117 0 2.002-.1099 2.655-.3295.646-.2134 1.202-.546 1.666-.9979.458-.4456.756-1.0356.895-1.7698l-2.834-.8002c-.132.3954-.286.7437-.461 1.0449-.189.2887-.44.499-.754.6308-.307.1192-.696.1788-1.167.1788-.809 0-1.45-.251-1.92-.7531-.365-.3792-.59-1.0319-.676-1.9581h8.085c.043-.2824.065-.5962.065-.9414 0-1.7636-.404-3.1537-1.214-4.1704-.816-1.0105-2.281-1.5157-4.396-1.5157-2.059 0-3.512.499-4.359 1.4968-.854.9979-1.28 2.3943-1.28 4.1893 0 1.7573.423 3.1474 1.271 4.1704Zm1.83-5.1401h4.948c-.069-.9539-.264-1.6223-.584-2.0052-.433-.4455-1.042-.6683-1.826-.6683-.76 0-1.381.2447-1.864.7342-.361.3659-.586 1.0123-.674 1.9393Z" clip-rule="evenodd"/>
  <path fill="currentColor" d="m108.256 24.7312 3.492 11.165h4.322l3.502-11.165h-3.305l-2.344 9.0281h-.019l-2.325-9.0281h-3.323ZM92.8113 35.3221c1.0041.4394 2.2436.659 3.7185.659 1.682 0 2.978-.2636 3.8882-.7908.91-.5334 1.365-1.4215 1.365-2.6641 0-1.1297-.421-1.9174-1.262-2.363-.8344-.4518-1.8793-.7656-3.1345-.9414-.9665-.1569-1.7604-.3043-2.3818-.4424-.6213-.1444-.932-.455-.932-.932 0-.364.1601-.6464.4801-.8473.3264-.2071.8316-.3106 1.5157-.3106.728 0 1.3368.1663 1.8263.4989.4896.3326.8034.7814.9414 1.3462l2.7768-.9979c-.269-1.0543-.881-1.8012-1.8354-2.2405-.9476-.4393-2.1715-.659-3.6714-.659-1.5439 0-2.7897.2636-3.7374.7908-.9477.5209-1.4215 1.3305-1.4215 2.4288 0 1.1297.386 1.9487 1.1579 2.4571.772.5083 1.7949.8566 3.069 1.0449 1.0104.1695 1.842.3232 2.4947.4613.659.1318.9885.4456.9885.9414 0 .364-.182.6496-.546.8567-.3641.2071-.8756.3107-1.5345.3107-.7971 0-1.4498-.1601-1.9581-.4802-.5084-.32-.8348-.8001-.9791-1.4403l-2.7772 1.0073c.3013 1.092.9509 1.8608 1.9488 2.3064ZM86.6955 35.8962l-.5363-1.3163c-.8894.9403-2.1385 1.4105-3.747 1.4105-1.4561 0-2.454-.4707-2.9937-1.4121-.5397-.9414-.8096-2.2029-.8096-3.7845v-6.0626h3.1537v5.9026c0 1.2427.1443 2.0836.433 2.523.295.4393.7563.6589 1.3839.6589.659 0 1.2238-.2573 1.6945-.7719.4164-.4552.6486-1.043.6967-1.7634v-6.5398h3.1537v11.1556h-2.4289ZM66.6072 35.9999c-2.0774 0-3.5303-.4926-4.3587-1.478-.8284-.9853-1.2426-2.3817-1.2426-4.1892 0-1.8389.4142-3.2478 1.2426-4.2269.8284-.9791 2.2813-1.4686 4.3587-1.4686 1.8514 0 3.138.4017 3.8598 1.205.7217.8033 1.1422 1.6475 1.2614 2.5324l-2.8148.979c-.0502-.8598-.2761-1.4968-.6778-1.911-.3954-.4142-.9382-.6213-1.6286-.6213-.6778 0-1.2426.2353-1.6945.706-.4519.4644-.6778 1.3996-.6778 2.8054 0 1.3556.2259 2.2782.6778 2.7677.4581.4833 1.023.7249 1.6945.7249.6841 0 1.227-.2165 1.6286-.6496.4017-.4393.6276-1.0543.6778-1.8451l2.8148 1.0167c-.1192.8222-.5397 1.638-1.2614 2.4476-.7218.8034-2.0084 1.205-3.8598 1.205ZM51.8974 29.6079 48 35.8964h3.6809l2.6265-4.9517 2.6171 4.9517h3.6715l-3.9163-6.2885 3.7939-6.4204h-3.6715l-2.4947 5.0647-2.5041-5.0647h-3.6809l3.775 6.4204ZM114.467 17.4055c.828.9853 2.281 1.478 4.358 1.478 1.852 0 3.138-.4017 3.86-1.205.722-.8096 1.142-1.6255 1.262-2.4477l-2.815-1.0167c-.05.7908-.276 1.4059-.678 1.8452-.402.433-.944.6495-1.629.6495-.671 0-1.236-.2416-1.694-.7248-.452-.4896-.678-1.4121-.678-2.7678 0-1.4058.226-2.3409.678-2.8053.452-.4707 1.017-.706 1.694-.706.691 0 1.234.207 1.629.6212.402.4143.628 1.0513.678 1.9111l2.815-.9791c-.12-.8849-.54-1.729-1.262-2.5324-.722-.8033-2.008-1.205-3.86-1.205-2.077 0-3.53.4896-4.358 1.4686-.829.9791-1.243 2.3881-1.243 4.2269 0 1.8075.414 3.2039 1.243 4.1893ZM108.804 13.1127c0-1.4058-.16-2.3253-.48-2.7583-.314-.433-.76-.6496-1.337-.6496-.659 0-1.186.2322-1.582.6966-.339.4-.531.8502-.574 1.3506v7.0279h-3.154V7.6243h2.439l.463 1.2494c.09-.0926.187-.1828.29-.2703.841-.7218 1.945-1.0827 3.314-1.0827 1.474 0 2.472.455 2.993 1.365.527.9038.791 2.3128.791 4.227h-3.163ZM78.571 4v14.78h3.1726V4H78.571Z"/>
  <path fill="currentColor" fill-rule="evenodd" d="M69.8527 18.893c-.6778 0-1.2834-.0533-1.8169-.16-.5271-.113-.9759-.3013-1.3462-.5648-.3703-.2636-.6527-.6182-.8472-1.0638-.1946-.4456-.2919-1.0011-.2919-1.6663 0-.6339.091-1.1642.273-1.591.1883-.4268.4613-.7688.8191-1.0261.364-.2636.8127-.4519 1.3462-.5649.5334-.1192 1.1485-.1788 1.8451-.1788h3.5209v-.4237c0-.502-.091-.8974-.273-1.1861-.1758-.295-.4331-.5084-.772-.6402-.3389-.1318-.7406-.1977-1.205-.1977-.3703 0-.7155.0596-1.0355.1789-.3138.113-.5837.3044-.8096.5743-.226.2698-.386.6338-.4801 1.092l-3.0973-.8567c.1318-.5774.364-1.0638.6967-1.4592.3389-.4016.75-.7217 1.2332-.9602.4833-.2385 1.0199-.411 1.6098-.5178.5962-.113 1.2176-.1694 1.864-.1694 1.1862 0 2.184.1412 2.9936.4236.8097.2824 1.4216.7406 1.8358 1.3744.4142.6277.6213 1.4624.6213 2.5042v6.9664h-2.6359l-.273-1.2803c-.1004.1694-.2636.3357-.4896.4989-.2259.1632-.502.3138-.8284.4519-.3263.1318-.6966.2385-1.1108.3201-.4143.0815-.863.1223-1.3463.1223Zm.7155-2.024c.4331 0 .8347-.0502 1.205-.1506.3703-.1004.6872-.2322.9508-.3954.2699-.1694.4645-.3483.5837-.5366v-1.9958H70.587c-.2761 0-.5271.022-.7531.0659-.2259.0377-.4205.1099-.5837.2166-.1568.1066-.2792.2604-.3671.4612-.0816.2009-.1224.4613-.1224.7814s.044.5805.1318.7814c.0879.2008.2134.3577.3766.4707.1632.1067.3546.1851.5742.2353.2197.044.4613.0659.7249.0659Z" clip-rule="evenodd"/>
  <path fill="currentColor" d="M48.5933 6.071V18.78h3.1631V8.274h.047l2.5701 10.1577h3.7279l2.5701-10.1578h.047V18.78h3.1631V6.071h-5.1683l-2.457 10.0825h-.0377L53.771 6.071h-5.1777Z"/>
</svg>
